<?xml version="1.0" encoding="UTF-8" standalone="no"?>
<!-- Generator: Adobe Illustrator 26.1.0, SVG Export Plug-In . SVG Version: 6.00 Build 0)  -->

<svg
   version="1.1"
   id="Layer_1"
   x="0px"
   y="0px"
   viewBox="0 0 64 64"
   style="enable-background:new 0 0 64 64;"
   xml:space="preserve"
   sodipodi:docname="folder-download.svg"
   inkscape:version="1.1.2 (0a00cf5339, 2022-02-04)"
   xmlns:inkscape="http://www.inkscape.org/namespaces/inkscape"
   xmlns:sodipodi="http://sodipodi.sourceforge.net/DTD/sodipodi-0.dtd"
   xmlns="http://www.w3.org/2000/svg"
   xmlns:svg="http://www.w3.org/2000/svg"><defs
   id="defs27" /><sodipodi:namedview
   id="namedview25"
   pagecolor="#ffffff"
   bordercolor="#666666"
   borderopacity="1.0"
   inkscape:pageshadow="2"
   inkscape:pageopacity="0.0"
   inkscape:pagecheckerboard="0"
   showgrid="false"
   inkscape:zoom="10.0625"
   inkscape:cx="31.950311"
   inkscape:cy="32"
   inkscape:window-width="1920"
   inkscape:window-height="1007"
   inkscape:window-x="0"
   inkscape:window-y="0"
   inkscape:window-maximized="1"
   inkscape:current-layer="Layer_1" />
<style
   type="text/css"
   id="style2">
	.st0{fill:#6CB1EF;}
	.st1{fill:#3891F2;}
	.st2{opacity:0.6;}
	.st3{fill:#FFFFFF;}
	.st4{opacity:0.6;fill:#FFFFFF;enable-background:new    ;}
</style>

<g
   id="g850"
   transform="translate(227.19633,-20.308535)"><path
     class="st0"
     d="m -169.14633,83.108535 h -34.5 c -2.6,0 -4.7,-2.1 -4.7,-4.7 v -39.4 c 0,-2.6 2.1,-4.7 4.7,-4.7 h 34.5 c 2.6,0 4.7,2.1 4.7,4.7 v 39.4 c -0.1,2.6 -2.2,4.7 -4.7,4.7 z"
     id="path4-7"
     style="fill:#bd0a17;fill-opacity:1" /><path
     class="st1"
     d="m -208.04633,33.108535 h -13.2 c -3.3,0 -5.9,2.7 -5.9,5.9 v 39.4 c 0,3.3 2.7,5.9 5.9,5.9 h 52.1 c 3.3,0 5.9,-2.7 5.9,-5.9 v -19.5 0 c 0,-1.5 -0.8,-2.9 -2.1,-3.8 l -28,-17.8 c -4.4,-2.7 -9.5,-4.2 -14.7,-4.2 z"
     id="path6-5"
     style="fill:#e30a17;fill-opacity:1" /></g><g
   id="g22">
	<g
   class="st2"
   id="g14">
		<path
   class="st3"
   d="M39.8,57.3H24.1c-2.6,0-4.7-2.1-4.7-4.7V32.4c0-2.6,2.1-4.7,4.7-4.7h15.7c2.6,0,4.7,2.1,4.7,4.7v20.1    C44.5,55.2,42.4,57.3,39.8,57.3z M24.1,29.1c-1.9,0-3.4,1.5-3.4,3.4v20.1c0,1.9,1.5,3.4,3.4,3.4h15.7c1.9,0,3.4-1.5,3.4-3.4V32.5    c0-1.9-1.5-3.4-3.4-3.4H24.1z"
   id="path12" />
	</g>
	<g
   class="st2"
   id="g18">
		<path
   class="st3"
   d="M24.5,48.8V49c0,1,0.8,1.9,1.9,1.9l0,0h11.1c1,0,1.9-0.8,1.9-1.9l0,0v-0.2c0-0.5-0.4-0.9-1-0.9H25.5    C25,47.9,24.6,48.3,24.5,48.8z"
   id="path16" />
	</g>
	<path
   class="st4"
   d="M36.8,41.5c-0.3-0.3-0.6-0.3-0.9,0l-3.2,3.2V34.2c0-0.4-0.3-0.6-0.6-0.6c-0.3,0-0.6,0.3-0.6,0.6v10.5l-3.2-3.2   c-0.3-0.3-0.6-0.3-0.9,0s-0.3,0.6,0,0.9l4.3,4.3l0.1,0.1l0,0c0,0,0,0,0.1,0c0,0,0,0,0.1,0c0,0,0,0,0.1,0c0.1,0,0.1,0,0.1,0h0.1   c0,0,0,0,0.1,0s0,0,0.1,0c0,0,0,0,0.1,0l0,0l0.1-0.1l4.3-4.3C36.9,42.2,36.9,41.8,36.8,41.5z"
   id="path20" />
</g>
</svg>
