<?xml version="1.0" encoding="UTF-8" standalone="no"?>
<!-- Generator: Adobe Illustrator 26.1.0, SVG Export Plug-In . SVG Version: 6.00 Build 0)  -->

<svg
   version="1.1"
   id="Layer_1"
   x="0px"
   y="0px"
   viewBox="0 0 64 64"
   style="enable-background:new 0 0 64 64;"
   xml:space="preserve"
   sodipodi:docname="user-home.svg"
   inkscape:version="1.1.2 (0a00cf5339, 2022-02-04)"
   xmlns:inkscape="http://www.inkscape.org/namespaces/inkscape"
   xmlns:sodipodi="http://sodipodi.sourceforge.net/DTD/sodipodi-0.dtd"
   xmlns="http://www.w3.org/2000/svg"
   xmlns:svg="http://www.w3.org/2000/svg"><defs
   id="defs21" /><sodipodi:namedview
   id="namedview19"
   pagecolor="#ffffff"
   bordercolor="#666666"
   borderopacity="1.0"
   inkscape:pageshadow="2"
   inkscape:pageopacity="0.0"
   inkscape:pagecheckerboard="0"
   showgrid="false"
   inkscape:zoom="10.0625"
   inkscape:cx="31.950311"
   inkscape:cy="32"
   inkscape:window-width="1920"
   inkscape:window-height="1007"
   inkscape:window-x="0"
   inkscape:window-y="0"
   inkscape:window-maximized="1"
   inkscape:current-layer="Layer_1" />
<style
   type="text/css"
   id="style2">
	.st0{fill:#6CB1EF;}
	.st1{fill:#3891F2;}
	.st2{opacity:0.6;fill:#FFFFFF;enable-background:new    ;}
</style>

<g
   id="g850"
   transform="translate(227.19633,-20.308535)"><path
     class="st0"
     d="m -169.14633,83.108535 h -34.5 c -2.6,0 -4.7,-2.1 -4.7,-4.7 v -39.4 c 0,-2.6 2.1,-4.7 4.7,-4.7 h 34.5 c 2.6,0 4.7,2.1 4.7,4.7 v 39.4 c -0.1,2.6 -2.2,4.7 -4.7,4.7 z"
     id="path4-7"
     style="fill:#bd0a17;fill-opacity:1" /><path
     class="st1"
     d="m -208.04633,33.108535 h -13.2 c -3.3,0 -5.9,2.7 -5.9,5.9 v 39.4 c 0,3.3 2.7,5.9 5.9,5.9 h 52.1 c 3.3,0 5.9,-2.7 5.9,-5.9 v -19.5 0 c 0,-1.5 -0.8,-2.9 -2.1,-3.8 l -28,-17.8 c -4.4,-2.7 -9.5,-4.2 -14.7,-4.2 z"
     id="path6-5"
     style="fill:#e30a17;fill-opacity:1" /></g><path
   class="st2"
   d="M46.4,36.9l-3.1-2.1c-0.1-0.2-0.3-0.3-0.5-0.4l-8.4-5.9c-1.4-1-3.4-1-4.8,0l-8.7,6c-0.1,0-0.2,0.1-0.2,0.2  l-3.2,2.1c-0.6,0.4-0.7,1.2-0.3,1.8c0.3,0.4,0.7,0.6,1.1,0.6c0.3,0,0.5-0.1,0.7-0.2l1.2-0.8v12.1c0,3.9,3.3,7,7.1,7h9.4  c3.9,0,7-3.2,7.1-7V38.2l1.2,0.8c0.6,0.4,1.4,0.3,1.8-0.3C47.2,38.1,47,37.3,46.4,36.9z M32,38.9c0.9,0,1.7,0.7,1.7,1.7  c0,1-0.7,1.7-1.7,1.7c-0.9,0-1.7-0.7-1.7-1.7C30.2,39.7,30.9,38.9,32,38.9z M32,51.3c-2,0-3.7-1.6-3.7-3.7S29.9,44,32,44  s3.7,1.6,3.7,3.7C35.6,49.7,33.9,51.3,32,51.3z"
   id="path16" />
</svg>
