<?xml version="1.0" encoding="UTF-8" standalone="no"?>
<!-- Generator: Adobe Illustrator 26.1.0, SVG Export Plug-In . SVG Version: 6.00 Build 0)  -->

<svg
   version="1.1"
   id="Layer_1"
   x="0px"
   y="0px"
   viewBox="0 0 64 64"
   style="enable-background:new 0 0 64 64;"
   xml:space="preserve"
   sodipodi:docname="folder-documents.svg"
   inkscape:version="1.1.2 (0a00cf5339, 2022-02-04)"
   xmlns:inkscape="http://www.inkscape.org/namespaces/inkscape"
   xmlns:sodipodi="http://sodipodi.sourceforge.net/DTD/sodipodi-0.dtd"
   xmlns="http://www.w3.org/2000/svg"
   xmlns:svg="http://www.w3.org/2000/svg"><defs
   id="defs15" /><sodipodi:namedview
   id="namedview13"
   pagecolor="#ffffff"
   bordercolor="#666666"
   borderopacity="1.0"
   inkscape:pageshadow="2"
   inkscape:pageopacity="0.0"
   inkscape:pagecheckerboard="0"
   showgrid="false"
   inkscape:zoom="2.515625"
   inkscape:cx="-46.708074"
   inkscape:cy="72.347826"
   inkscape:window-width="1920"
   inkscape:window-height="1007"
   inkscape:window-x="0"
   inkscape:window-y="0"
   inkscape:window-maximized="1"
   inkscape:current-layer="Layer_1" />
<style
   type="text/css"
   id="style2">
	.st0{fill:#6CB1EF;}
	.st1{fill:#3891F2;}
	.st2{opacity:0.6;fill:#FFFFFF;enable-background:new    ;}
</style>

<g
   id="g850"
   transform="translate(227.19633,-20.308535)"><path
     class="st0"
     d="m -169.14633,83.108535 h -34.5 c -2.6,0 -4.7,-2.1 -4.7,-4.7 v -39.4 c 0,-2.6 2.1,-4.7 4.7,-4.7 h 34.5 c 2.6,0 4.7,2.1 4.7,4.7 v 39.4 c -0.1,2.6 -2.2,4.7 -4.7,4.7 z"
     id="path4-7"
     style="fill:#bd0a17;fill-opacity:1" /><path
     class="st1"
     d="m -208.04633,33.108535 h -13.2 c -3.3,0 -5.9,2.7 -5.9,5.9 v 39.4 c 0,3.3 2.7,5.9 5.9,5.9 h 52.1 c 3.3,0 5.9,-2.7 5.9,-5.9 v -19.5 0 c 0,-1.5 -0.8,-2.9 -2.1,-3.8 l -28,-17.8 c -4.4,-2.7 -9.5,-4.2 -14.7,-4.2 z"
     id="path6-5"
     style="fill:#e30a17;fill-opacity:1" /></g><path
   class="st2"
   d="M25.6,27.8h-0.7c-2.3,0-4.2,1.9-4.2,4.2v21.1c0,2.3,1.9,4.2,4.2,4.2h14.3c2.3,0,4.2-1.9,4.2-4.2v-7.6  C43.3,35.7,35.3,27.8,25.6,27.8z M42.1,53.1c0,1.6-1.3,2.9-2.9,2.9H24.9c-1.6,0-2.9-1.3-2.9-2.9V32c0-1.6,1.3-2.9,2.9-2.9h0.7  c1.6,0,3,0.2,4.5,0.6v5.5c-0.2,1.6,0.9,3,2.4,3.2c0.1,0,0.3,0,0.4,0h7.6c1.1,2.2,1.6,4.6,1.6,7.1L42.1,53.1L42.1,53.1z"
   id="path10" />
<style
   type="text/css"
   id="style2-6">
	.st0{fill:#6CB1EF;}
	.st1{fill:#3891F2;}
	.st2{opacity:0.6;fill:#FFFFFF;enable-background:new    ;}
</style></svg>
