<?xml version="1.0" encoding="UTF-8" standalone="no"?>
<!-- Generator: Adobe Illustrator 26.1.0, SVG Export Plug-In . SVG Version: 6.00 Build 0)  -->

<svg
   version="1.1"
   id="Layer_1"
   x="0px"
   y="0px"
   viewBox="0 0 64 64"
   style="enable-background:new 0 0 64 64;"
   xml:space="preserve"
   sodipodi:docname="folder-pictures.svg"
   inkscape:version="1.1.2 (0a00cf5339, 2022-02-04)"
   xmlns:inkscape="http://www.inkscape.org/namespaces/inkscape"
   xmlns:sodipodi="http://sodipodi.sourceforge.net/DTD/sodipodi-0.dtd"
   xmlns="http://www.w3.org/2000/svg"
   xmlns:svg="http://www.w3.org/2000/svg"><defs
   id="defs23" /><sodipodi:namedview
   id="namedview21"
   pagecolor="#ffffff"
   bordercolor="#666666"
   borderopacity="1.0"
   inkscape:pageshadow="2"
   inkscape:pageopacity="0.0"
   inkscape:pagecheckerboard="0"
   showgrid="false"
   inkscape:zoom="10.0625"
   inkscape:cx="31.950311"
   inkscape:cy="32"
   inkscape:window-width="1920"
   inkscape:window-height="1007"
   inkscape:window-x="0"
   inkscape:window-y="0"
   inkscape:window-maximized="1"
   inkscape:current-layer="Layer_1" />
<style
   type="text/css"
   id="style2">
	.st0{fill:#6CB1EF;}
	.st1{fill:#3891F2;}
	.st2{opacity:0.6;fill:#FFFFFF;enable-background:new    ;}
	.st3{opacity:0.6;}
	.st4{fill:#FFFFFF;}
</style>

<g
   id="g850"
   transform="translate(227.19633,-20.308535)"><path
     class="st0"
     d="m -169.14633,83.108535 h -34.5 c -2.6,0 -4.7,-2.1 -4.7,-4.7 v -39.4 c 0,-2.6 2.1,-4.7 4.7,-4.7 h 34.5 c 2.6,0 4.7,2.1 4.7,4.7 v 39.4 c -0.1,2.6 -2.2,4.7 -4.7,4.7 z"
     id="path4-7"
     style="fill:#bd0a17;fill-opacity:1" /><path
     class="st1"
     d="m -208.04633,33.108535 h -13.2 c -3.3,0 -5.9,2.7 -5.9,5.9 v 39.4 c 0,3.3 2.7,5.9 5.9,5.9 h 52.1 c 3.3,0 5.9,-2.7 5.9,-5.9 v -19.5 0 c 0,-1.5 -0.8,-2.9 -2.1,-3.8 l -28,-17.8 c -4.4,-2.7 -9.5,-4.2 -14.7,-4.2 z"
     id="path6-5"
     style="fill:#e30a17;fill-opacity:1" /></g><g
   id="g18">
	<path
   class="st2"
   d="M44.5,38.2v-5.7c0-2.6-2.1-4.7-4.7-4.7H24.2c-2.6,0-4.7,2.1-4.7,4.7v20.1c0,2.6,2.1,4.7,4.7,4.7h15.6   c2.6,0,4.7-2.1,4.7-4.7v-14C44.5,38.5,44.5,38.3,44.5,38.2z M24.2,29.1h15.6c1.9,0,3.4,1.5,3.4,3.4v5.7l-8.1,8.9   c-0.1,0.1-0.2,0.2-0.3,0.3c-0.5,0.4-1.1,0.5-1.7,0.4c-0.6-0.1-1.2-0.4-1.5-0.9l-1.2-1.7c-1.2-1.6-3.4-1.9-5-0.8l-4.5,3.3V32.5   C20.7,30.6,22.3,29.1,24.2,29.1z M39.8,56H24.2c-1.9,0-3.4-1.5-3.4-3.4v-3.3l5.3-3.8c0.5-0.4,1.1-0.5,1.7-0.4s1.1,0.4,1.5,0.9   l1.2,1.7c0.6,0.8,1.4,1.3,2.4,1.4c1,0.1,1.9-0.1,2.7-0.7c0.2-0.1,0.4-0.3,0.5-0.4l7.2-7.9v12.5C43.2,54.5,41.7,56,39.8,56z"
   id="path12" />
	<g
   class="st3"
   id="g16">
		<circle
   class="st4"
   cx="26.3"
   cy="34.3"
   r="4.1"
   id="circle14" />
	</g>
</g>
</svg>
