<?xml version="1.0" encoding="UTF-8" standalone="no"?>
<svg
   id="Layer_1"
   data-name="Layer 1"
   viewBox="0 0 64 64"
   version="1.1"
   sodipodi:docname="old_user-bookmarks.svg"
   inkscape:version="1.1.2 (0a00cf5339, 2022-02-04)"
   xmlns:inkscape="http://www.inkscape.org/namespaces/inkscape"
   xmlns:sodipodi="http://sodipodi.sourceforge.net/DTD/sodipodi-0.dtd"
   xmlns:xlink="http://www.w3.org/1999/xlink"
   xmlns="http://www.w3.org/2000/svg"
   xmlns:svg="http://www.w3.org/2000/svg">
  <sodipodi:namedview
     id="namedview14"
     pagecolor="#ffffff"
     bordercolor="#666666"
     borderopacity="1.0"
     inkscape:pageshadow="2"
     inkscape:pageopacity="0.0"
     inkscape:pagecheckerboard="0"
     showgrid="false"
     inkscape:zoom="2.515625"
     inkscape:cx="-103.55279"
     inkscape:cy="0"
     inkscape:window-width="1920"
     inkscape:window-height="1007"
     inkscape:window-x="0"
     inkscape:window-y="0"
     inkscape:window-maximized="1"
     inkscape:current-layer="Layer_1" />
  <defs
     id="defs9">
    <linearGradient
       inkscape:collect="always"
       id="linearGradient2803">
      <stop
         style="stop-color:#e30a17;stop-opacity:1;"
         offset="0"
         id="stop2799" />
      <stop
         style="stop-color:#e30a17;stop-opacity:0;"
         offset="1"
         id="stop2801" />
    </linearGradient>
    <style
       id="style2">.cls-1{fill:url(#linear-gradient);}</style>
    <linearGradient
       id="linear-gradient"
       x1="33.8"
       y1="-5.14"
       x2="28.49"
       y2="104.19"
       gradientUnits="userSpaceOnUse">
      <stop
         offset="0"
         stop-color="#ffed00"
         id="stop4" />
      <stop
         offset="0.99"
         stop-color="#f9b233"
         id="stop6" />
    </linearGradient>
    <linearGradient
       inkscape:collect="always"
       xlink:href="#linearGradient2803"
       id="linearGradient2805"
       x1="32.737431"
       y1="64.7827"
       x2="30.273829"
       y2="-152.73654"
       gradientUnits="userSpaceOnUse" />
  </defs>
  <path
     class="cls-1"
     d="M45.7,62.9,33.9,48.4a2.4,2.4,0,0,0-3.4-.4l-.5.4L18.1,62.9a2.6,2.6,0,0,1-3.7.2,2.8,2.8,0,0,1-.9-1.8V2.6A2.6,2.6,0,0,1,16.1,0H47.8a2.6,2.6,0,0,1,2.6,2.6V61.3A2.6,2.6,0,0,1,48,64,2.8,2.8,0,0,1,45.7,62.9Z"
     id="path11"
     style="fill:url(#linearGradient2805);fill-opacity:1" />
</svg>
