<?xml version="1.0" encoding="UTF-8" standalone="no"?>
<!-- Generator: Adobe Illustrator 26.1.0, SVG Export Plug-In . SVG Version: 6.00 Build 0)  -->

<svg
   version="1.1"
   id="Layer_1"
   x="0px"
   y="0px"
   viewBox="0 0 64 64"
   style="enable-background:new 0 0 64 64;"
   xml:space="preserve"
   sodipodi:docname="folder-bookmark.svg"
   inkscape:version="1.1.2 (0a00cf5339, 2022-02-04)"
   xmlns:inkscape="http://www.inkscape.org/namespaces/inkscape"
   xmlns:sodipodi="http://sodipodi.sourceforge.net/DTD/sodipodi-0.dtd"
   xmlns="http://www.w3.org/2000/svg"
   xmlns:svg="http://www.w3.org/2000/svg"><defs
   id="defs21">
	

		
	
			
		
				
				
			</defs><sodipodi:namedview
   id="namedview19"
   pagecolor="#ffffff"
   bordercolor="#666666"
   borderopacity="1.0"
   inkscape:pageshadow="2"
   inkscape:pageopacity="0.0"
   inkscape:pagecheckerboard="0"
   showgrid="false"
   inkscape:zoom="0.62890625"
   inkscape:cx="-113.68944"
   inkscape:cy="-233.73913"
   inkscape:window-width="1920"
   inkscape:window-height="1007"
   inkscape:window-x="0"
   inkscape:window-y="0"
   inkscape:window-maximized="1"
   inkscape:current-layer="Layer_1" />
<style
   type="text/css"
   id="style2">
	.st0{fill:#6CB1EF;}
	.st1{fill:#3891F2;}
	.st2{opacity:0.6;fill:#FFFFFF;enable-background:new    ;}
</style>
<path
   class="st0"
   d="M 58,62.8 H 23.5 c -2.6,0 -4.7,-2.1 -4.7,-4.7 V 18.7 c 0,-2.6 2.1,-4.7 4.7,-4.7 H 58 c 2.6,0 4.7,2.1 4.7,4.7 v 39.4 c -0.1,2.6 -2.2,4.7 -4.7,4.7 z"
   id="path4"
   style="fill:#bd0a17;fill-opacity:1" /><path
   class="st1"
   d="M 19.1,12.8 H 5.9 C 2.6,12.8 0,15.5 0,18.7 V 58.1 C 0,61.4 2.7,64 5.9,64 H 58 c 3.3,0 5.9,-2.7 5.9,-5.9 v -19.5 0 c 0,-1.5 -0.8,-2.9 -2.1,-3.8 L 33.8,17 C 29.4,14.3 24.3,12.8 19.1,12.8 Z"
   id="path6"
   style="fill:#e30a17;fill-opacity:1" />
<path
   class="st2"
   d="M39.8,27.8H24.2c-2.6,0-4.7,2.1-4.7,4.7v20.1c0,2.6,2.1,4.7,4.7,4.7h15.6c2.6,0,4.7-2.1,4.7-4.7V32.5  C44.5,29.9,42.4,27.8,39.8,27.8z M43.2,52.6c0,1.9-1.5,3.4-3.4,3.4H24.2c-1.9,0-3.4-1.5-3.4-3.4V32.5c0-1.9,1.5-3.4,3.4-3.4H32v11.4  c0,0.1,0.1,0.3,0.2,0.4c0.2,0.2,0.5,0.2,0.7,0l2.3-2.9l0.1-0.1c0.2-0.2,0.5-0.1,0.7,0.1l2.3,2.9c0.1,0.1,0.3,0.2,0.4,0.2  c0.3,0,0.5-0.3,0.5-0.5V29.1h0.5c1.9,0,3.4,1.5,3.4,3.4L43.2,52.6L43.2,52.6z"
   id="path16" />
</svg>
