<?xml version="1.0" encoding="UTF-8" standalone="no"?>
<!-- Generator: Adobe Illustrator 26.1.0, SVG Export Plug-In . SVG Version: 6.00 Build 0)  -->

<svg
   version="1.1"
   id="Layer_1"
   x="0px"
   y="0px"
   viewBox="0 0 64 64"
   style="enable-background:new 0 0 64 64;"
   xml:space="preserve"
   sodipodi:docname="folder-templates.svg"
   inkscape:version="1.1.2 (0a00cf5339, 2022-02-04)"
   xmlns:inkscape="http://www.inkscape.org/namespaces/inkscape"
   xmlns:sodipodi="http://sodipodi.sourceforge.net/DTD/sodipodi-0.dtd"
   xmlns="http://www.w3.org/2000/svg"
   xmlns:svg="http://www.w3.org/2000/svg"><defs
   id="defs37" /><sodipodi:namedview
   id="namedview35"
   pagecolor="#ffffff"
   bordercolor="#666666"
   borderopacity="1.0"
   inkscape:pageshadow="2"
   inkscape:pageopacity="0.0"
   inkscape:pagecheckerboard="0"
   showgrid="false"
   inkscape:zoom="10.0625"
   inkscape:cx="31.950311"
   inkscape:cy="32"
   inkscape:window-width="1920"
   inkscape:window-height="1007"
   inkscape:window-x="0"
   inkscape:window-y="0"
   inkscape:window-maximized="1"
   inkscape:current-layer="Layer_1" />
<style
   type="text/css"
   id="style2">
	.st0{fill:#6CB1EF;}
	.st1{fill:#3891F2;}
	.st2{opacity:0.6;}
	.st3{fill:#FFFFFF;}
</style>

<g
   id="g850"
   transform="translate(227.19633,-20.308535)"><path
     class="st0"
     d="m -169.14633,83.108535 h -34.5 c -2.6,0 -4.7,-2.1 -4.7,-4.7 v -39.4 c 0,-2.6 2.1,-4.7 4.7,-4.7 h 34.5 c 2.6,0 4.7,2.1 4.7,4.7 v 39.4 c -0.1,2.6 -2.2,4.7 -4.7,4.7 z"
     id="path4-7"
     style="fill:#bd0a17;fill-opacity:1" /><path
     class="st1"
     d="m -208.04633,33.108535 h -13.2 c -3.3,0 -5.9,2.7 -5.9,5.9 v 39.4 c 0,3.3 2.7,5.9 5.9,5.9 h 52.1 c 3.3,0 5.9,-2.7 5.9,-5.9 v -19.5 0 c 0,-1.5 -0.8,-2.9 -2.1,-3.8 l -28,-17.8 c -4.4,-2.7 -9.5,-4.2 -14.7,-4.2 z"
     id="path6-5"
     style="fill:#e30a17;fill-opacity:1" /></g><g
   id="g32">
	<g
   class="st2"
   id="g18">
		<path
   class="st3"
   d="M39.9,57.3H24.2c-2.6,0-4.7-2.1-4.7-4.7V32.5c0-2.6,2.1-4.7,4.7-4.7h15.6c2.6,0,4.7,2.1,4.7,4.7v20.1    C44.5,55.2,42.4,57.3,39.9,57.3z M24.2,29.1c-1.9,0-3.4,1.5-3.4,3.4v20.1c0,1.9,1.5,3.4,3.4,3.4h15.6c1.9,0,3.4-1.5,3.4-3.4V32.5    c0-1.9-1.5-3.4-3.4-3.4H24.2z"
   id="path16" />
	</g>
	<g
   class="st2"
   id="g22">
		<path
   class="st3"
   d="M29.9,51.2h-3.7c-1.1,0-2-0.9-2-2V36.5c0-1.1,0.9-2,2-2h3.7c1.1,0,2,0.9,2,2v12.7    C31.9,50.3,31,51.2,29.9,51.2z M26.2,35.8c-0.4,0-0.7,0.3-0.7,0.7v12.7c0,0.4,0.3,0.7,0.7,0.7h3.7c0.4,0,0.7-0.3,0.7-0.7V36.5    c0-0.4-0.3-0.7-0.7-0.7H26.2z"
   id="path20" />
	</g>
	<g
   class="st2"
   id="g26">
		<path
   class="st3"
   d="M37.6,51.2h-3.3c-0.9,0-1.6-0.7-1.6-1.6V44c0-0.9,0.7-1.6,1.6-1.6h3.3c0.9,0,1.6,0.7,1.6,1.6v5.6    C39.2,50.5,38.5,51.2,37.6,51.2z M34.4,43.6c-0.2,0-0.4,0.2-0.4,0.4v5.6c0,0.2,0.2,0.4,0.4,0.4h3.3c0.2,0,0.4-0.2,0.4-0.4V44    c0-0.2-0.2-0.4-0.4-0.4H34.4z"
   id="path24" />
	</g>
	<g
   class="st2"
   id="g30">
		<path
   class="st3"
   d="M33.7,34.5h4.6c0.5,0,1,0.4,1,1v4.6c0,0.5-0.4,1-1,1h-4.6c-0.5,0-1-0.4-1-1v-4.6    C32.7,34.9,33.1,34.5,33.7,34.5z"
   id="path28" />
	</g>
</g>
</svg>
